<svg width="708" height="700" viewBox="0 0 708 700" fill="none" xmlns="http://www.w3.org/2000/svg">
<rect x="16" y="16" width="676" height="668" rx="40" fill="#8B7BFF"/>
<path d="M495.42 295.283L302.312 183.809C295.387 179.812 289.729 182.993 289.701 190.959L289.138 392.653C289.138 400.62 294.711 410.332 301.664 414.329L494.773 525.803C501.698 529.8 507.356 526.591 507.384 518.624L507.947 316.93C507.947 308.964 502.373 299.28 495.42 295.255" fill="white"/>
<path d="M495.42 295.283L302.312 183.809C295.387 179.812 289.729 182.993 289.701 190.959L289.138 392.653C289.138 400.62 294.711 410.332 301.664 414.329L494.773 525.803C501.698 529.8 507.356 526.591 507.384 518.624L507.947 316.93C507.947 308.964 502.373 299.28 495.42 295.255" stroke="black" stroke-width="2.81499" stroke-miterlimit="10"/>
<path d="M504.766 525.858L415.869 574.698V359.717L205.026 231.269L293.811 182.71" fill="white"/>
<path d="M504.767 305.529L414.799 354.932V574.671L504.767 525.831C504.767 525.831 507.356 519.131 507.413 501.65C507.469 484.169 507.919 323.714 507.919 323.714C507.919 323.714 508.539 319.689 504.767 305.501V305.529Z" fill="black"/>
<path d="M407.283 343.503L214.174 232.029C207.249 228.032 201.591 231.213 201.563 239.179L201 440.874C201 448.84 206.574 458.552 213.527 462.549L406.635 574.023C413.56 578.02 419.218 574.811 419.246 566.845L419.809 365.15C419.809 357.184 414.236 347.5 407.283 343.475" fill="white"/>
<path d="M407.283 343.503L214.174 232.029C207.249 228.032 201.591 231.213 201.563 239.179L201 440.874C201 448.84 206.574 458.552 213.527 462.549L406.635 574.023C413.56 578.02 419.218 574.811 419.246 566.845L419.809 365.15C419.809 357.184 414.236 347.5 407.283 343.475" stroke="black" stroke-width="2.81499" stroke-miterlimit="10"/>
<path d="M205.026 231.27L294.289 182.458" stroke="black" stroke-width="2.81499" stroke-miterlimit="10"/>
<path d="M414.799 575.291L504.767 525.859" stroke="black" stroke-width="2.81499" stroke-miterlimit="10"/>
<path d="M300.425 336.887C267.912 318.111 241.479 333.199 241.367 370.554C241.254 407.909 267.518 453.399 300.031 472.175C332.544 490.951 358.977 475.891 359.09 438.536C359.202 401.181 332.939 355.663 300.425 336.887Z" fill="#FFFA88" stroke="#231F20" stroke-width="2.81499" stroke-miterlimit="10"/>
<path d="M297.244 380.662L296.878 380.436C295.105 379.423 293.359 378.691 291.586 378.1C290.572 377.819 289.812 378.663 290.066 380.127C290.291 381.253 291.164 382.548 292.121 383.111C292.261 383.195 292.43 383.251 292.571 383.308C294.091 383.758 295.724 384.406 297.216 385.278C307.688 391.612 316.217 406.081 316.301 417.735C316.414 423.59 316.133 429.248 315.485 434.512C315.344 435.751 316.245 437.412 317.371 438.2L317.484 438.285C318.497 438.876 319.37 438.51 319.511 437.412C320.158 431.838 320.411 426.039 320.327 420.043C320.242 405.8 309.827 388.206 297.244 380.634M281.058 379.845C280.467 379.508 279.904 379.479 279.481 379.789C276.329 382.463 274.555 387.08 274.668 392.935C274.78 398.79 274.245 404.308 273.345 409.29C273.204 410.529 273.992 412.133 274.977 412.978L275.343 413.203C276.357 413.794 277.229 413.428 277.37 412.499C278.271 407.094 278.778 401.436 278.693 395.271C278.693 390.514 279.988 386.742 282.634 384.518C283.394 384.096 283.282 382.576 282.381 381.197C281.987 380.577 281.536 380.127 281.058 379.873M297.582 393.16C293.922 391.19 290.91 390.767 288.517 392.119C286.237 393.414 284.971 396.144 285.083 399.832C285.196 407.123 284.548 414.16 283.253 420.381C283 421.535 283.76 423.281 284.745 424.013C284.914 424.153 285.083 424.266 285.224 424.35C286.153 424.885 286.913 424.632 287.138 423.647C288.546 417.06 289.193 409.741 289.08 402.168C289.08 399.719 289.84 397.833 291.361 396.96C293.641 395.666 296.653 397.27 297.525 397.777C302.17 400.62 305.83 407.066 305.801 412.105C305.914 419.537 305.52 426.574 304.366 433.161C304.225 434.259 304.985 435.836 306.111 436.793L306.364 436.933C307.378 437.525 308.279 437.299 308.391 436.23C309.405 429.445 309.94 422.042 309.968 414.526C309.855 406.785 304.338 397.214 297.525 393.16M326.998 413.316C326.998 413.316 326.717 413.175 326.604 413.147C325.478 412.781 324.718 413.513 324.972 414.948C325.338 417.2 325.591 419.368 325.591 421.535C325.703 422.633 325.703 423.787 325.591 424.857C325.591 426.152 326.604 427.757 327.59 428.32C328.716 428.967 329.616 428.46 329.616 427.165C329.757 426.068 329.757 424.913 329.616 423.703C329.616 421.395 329.391 418.777 328.997 416.243C328.772 415.117 327.899 413.822 327.027 413.316M297.582 405.771C297.582 405.771 297.441 405.687 297.385 405.659C296.371 405.068 295.499 405.574 295.499 406.869C295.583 417.51 294.316 427.194 291.895 435.948L291.755 436.455C291.501 437.327 291.867 439.411 293.641 440.424C294.513 440.931 295.273 440.79 295.527 439.917L295.78 439.326C298.314 430.234 299.609 420.24 299.524 409.037C299.524 407.826 298.539 406.278 297.582 405.743M296.174 367.825C287.729 362.955 280.044 362.252 274.189 365.573C268.362 369.036 265.181 376.045 265.294 385.644V388.825C265.153 390.064 266.026 391.725 267.152 392.372L267.264 392.456C268.278 393.048 269.15 392.541 269.291 391.302V387.84C269.207 379.536 271.853 373.399 276.92 370.528C282.099 367.544 289.08 368.416 296.568 372.723C296.737 372.808 296.906 372.92 297.075 373.005C306.393 378.522 315.204 388.966 320.58 400.93C320.974 401.774 321.594 402.506 322.269 402.9C322.663 403.125 323.086 403.238 323.48 403.182C324.352 402.956 324.606 401.662 323.986 400.141C317.85 386.573 307.8 374.694 297.103 368.388C296.794 368.191 296.484 368.022 296.146 367.825" fill="black"/>
<path d="M419.555 300.942L462.766 277.212L440.302 262.658L393.742 288.021L419.555 300.942Z" fill="black"/>
<path d="M320.214 243.993L363.396 220.263L340.961 205.709L294.401 231.073L320.214 243.993Z" fill="black"/>
<path d="M392.926 294.634V188.649C392.926 188.649 395.741 139.95 353.432 112.166C353.432 112.166 340.314 103.243 330.574 106.142C330.715 106.029 323.762 109.013 323.706 123.82C323.649 138.571 323.706 237.321 323.706 237.321V236.955C323.846 239.348 322.354 241.768 319.202 243.598C313.177 247.089 303.381 247.117 297.301 243.598C294.064 241.74 292.544 239.263 292.741 236.814V123.398C292.741 123.398 292.628 94.1502 314.754 81.8205C336.88 69.4908 360.892 80.5819 360.892 80.5819C360.892 80.5819 419.922 108.028 424.088 179.107V294.887C423.947 297.083 422.455 299.279 419.556 300.94C413.504 304.458 403.623 304.458 397.543 300.94C394.503 299.166 392.954 296.858 392.954 294.55" fill="white"/>
<path d="M392.926 294.634V188.649C392.926 188.649 395.741 139.95 353.432 112.166C353.432 112.166 340.314 103.243 330.574 106.142C330.715 106.029 323.762 109.013 323.706 123.82C323.649 138.571 323.706 237.321 323.706 237.321V236.955C323.846 239.348 322.354 241.768 319.202 243.598C313.177 247.089 303.381 247.117 297.301 243.598C294.064 241.74 292.544 239.263 292.741 236.814V123.398C292.741 123.398 292.628 94.1502 314.754 81.8205C336.88 69.4908 360.892 80.5819 360.892 80.5819C360.892 80.5819 419.922 108.028 424.088 179.107V294.887C423.947 297.083 422.455 299.279 419.556 300.94C413.504 304.458 403.623 304.458 397.543 300.94C394.503 299.166 392.954 296.858 392.954 294.55" stroke="black" stroke-width="2.81499" stroke-miterlimit="10"/>
<path d="M392.306 296.127C392.306 296.127 400.414 302.996 406.016 303.615C411.617 304.234 421.611 301.757 423.468 294.888L424.707 179.53C424.707 179.53 419.725 143.977 409.731 130.268C409.731 130.268 419.077 163.316 417.838 176.405C416.6 189.495 392.278 296.127 392.278 296.127H392.306Z" fill="black"/>
<path d="M331.813 105.298C314.979 109.662 318.723 129.62 318.723 129.62L301.889 244.978C318.723 246.836 323.086 238.729 323.086 238.729L323.677 129.226C323.311 128.747 322.945 115.939 326.886 109.915C326.886 109.915 329.138 106.621 330.602 106.143L331.813 105.298Z" fill="black"/>
<line y1="318" x2="102.235" y2="318" stroke="black" stroke-width="2"/>
<line x1="42.7375" y1="334" x2="150" y2="334" stroke="black" stroke-width="2" stroke-dasharray="4 4"/>
<line y1="588" x2="122" y2="588" stroke="black" stroke-width="2"/>
<line x1="576" y1="515" x2="665.966" y2="515" stroke="black" stroke-width="2"/>
<line x1="613.609" y1="531" x2="708" y2="531" stroke="black" stroke-width="2" stroke-dasharray="4 4"/>
<line x1="530" y1="118" x2="658" y2="118" stroke="black" stroke-width="2" stroke-dasharray="4 4"/>
</svg>
